<mxfile host="app.diagrams.net" modified="2022-07-22T02:39:35.268Z" agent="5.0 (Windows NT 10.0; Win64; x64) AppleWebKit/537.36 (KHTML, like Gecko) Chrome/103.0.0.0 Safari/537.36" etag="ODmqXD6KfkZFX0KfM7q6" version="20.0.4" type="github">
  <diagram id="oWcdZRQ7xZrGSE6Tlrnx" name="第 1 页">
    <mxGraphModel dx="1221" dy="644" grid="1" gridSize="10" guides="1" tooltips="1" connect="1" arrows="1" fold="1" page="1" pageScale="1" pageWidth="1169" pageHeight="1654" math="0" shadow="0">
      <root>
        <mxCell id="0" />
        <mxCell id="1" parent="0" />
        <mxCell id="QDC6DLgOSGsQadJOwINI-77" style="edgeStyle=orthogonalEdgeStyle;rounded=0;orthogonalLoop=1;jettySize=auto;html=1;entryX=0.5;entryY=0;entryDx=0;entryDy=0;" edge="1" parent="1" source="QDC6DLgOSGsQadJOwINI-14" target="QDC6DLgOSGsQadJOwINI-22">
          <mxGeometry relative="1" as="geometry" />
        </mxCell>
        <mxCell id="QDC6DLgOSGsQadJOwINI-78" style="edgeStyle=orthogonalEdgeStyle;rounded=0;orthogonalLoop=1;jettySize=auto;html=1;entryX=0.5;entryY=0;entryDx=0;entryDy=0;" edge="1" parent="1" source="QDC6DLgOSGsQadJOwINI-14" target="QDC6DLgOSGsQadJOwINI-26">
          <mxGeometry relative="1" as="geometry">
            <Array as="points">
              <mxPoint x="269" y="161" />
              <mxPoint x="509" y="161" />
            </Array>
          </mxGeometry>
        </mxCell>
        <mxCell id="QDC6DLgOSGsQadJOwINI-14" value="内部调用入口" style="swimlane;fontStyle=1;align=center;verticalAlign=top;childLayout=stackLayout;horizontal=1;startSize=26;horizontalStack=0;resizeParent=1;resizeParentMax=0;resizeLast=0;collapsible=1;marginBottom=0;" vertex="1" parent="1">
          <mxGeometry x="189" y="51" width="160" height="94" as="geometry" />
        </mxCell>
        <mxCell id="QDC6DLgOSGsQadJOwINI-15" value="+ field: 集成方案执行器&#xa;+ field: 接口方案执行器" style="text;strokeColor=none;fillColor=none;align=left;verticalAlign=top;spacingLeft=4;spacingRight=4;overflow=hidden;rotatable=0;points=[[0,0.5],[1,0.5]];portConstraint=eastwest;" vertex="1" parent="QDC6DLgOSGsQadJOwINI-14">
          <mxGeometry y="26" width="160" height="34" as="geometry" />
        </mxCell>
        <mxCell id="QDC6DLgOSGsQadJOwINI-16" value="" style="line;strokeWidth=1;fillColor=none;align=left;verticalAlign=middle;spacingTop=-1;spacingLeft=3;spacingRight=3;rotatable=0;labelPosition=right;points=[];portConstraint=eastwest;" vertex="1" parent="QDC6DLgOSGsQadJOwINI-14">
          <mxGeometry y="60" width="160" height="8" as="geometry" />
        </mxCell>
        <mxCell id="QDC6DLgOSGsQadJOwINI-17" value="+ method(type): type" style="text;strokeColor=none;fillColor=none;align=left;verticalAlign=top;spacingLeft=4;spacingRight=4;overflow=hidden;rotatable=0;points=[[0,0.5],[1,0.5]];portConstraint=eastwest;" vertex="1" parent="QDC6DLgOSGsQadJOwINI-14">
          <mxGeometry y="68" width="160" height="26" as="geometry" />
        </mxCell>
        <mxCell id="QDC6DLgOSGsQadJOwINI-79" style="edgeStyle=orthogonalEdgeStyle;rounded=0;orthogonalLoop=1;jettySize=auto;html=1;entryX=0.5;entryY=0;entryDx=0;entryDy=0;" edge="1" parent="1" source="QDC6DLgOSGsQadJOwINI-18" target="QDC6DLgOSGsQadJOwINI-26">
          <mxGeometry relative="1" as="geometry" />
        </mxCell>
        <mxCell id="QDC6DLgOSGsQadJOwINI-80" style="edgeStyle=orthogonalEdgeStyle;rounded=0;orthogonalLoop=1;jettySize=auto;html=1;entryX=0.5;entryY=0;entryDx=0;entryDy=0;" edge="1" parent="1" source="QDC6DLgOSGsQadJOwINI-18" target="QDC6DLgOSGsQadJOwINI-22">
          <mxGeometry relative="1" as="geometry">
            <Array as="points">
              <mxPoint x="509" y="161" />
              <mxPoint x="269" y="161" />
            </Array>
          </mxGeometry>
        </mxCell>
        <mxCell id="QDC6DLgOSGsQadJOwINI-18" value="外部调用入口" style="swimlane;fontStyle=1;align=center;verticalAlign=top;childLayout=stackLayout;horizontal=1;startSize=26;horizontalStack=0;resizeParent=1;resizeParentMax=0;resizeLast=0;collapsible=1;marginBottom=0;" vertex="1" parent="1">
          <mxGeometry x="429" y="51" width="160" height="94" as="geometry" />
        </mxCell>
        <mxCell id="QDC6DLgOSGsQadJOwINI-19" value="+ field: 集成方案执行器&#xa;+ field: 接口方案执行器" style="text;strokeColor=none;fillColor=none;align=left;verticalAlign=top;spacingLeft=4;spacingRight=4;overflow=hidden;rotatable=0;points=[[0,0.5],[1,0.5]];portConstraint=eastwest;" vertex="1" parent="QDC6DLgOSGsQadJOwINI-18">
          <mxGeometry y="26" width="160" height="34" as="geometry" />
        </mxCell>
        <mxCell id="QDC6DLgOSGsQadJOwINI-20" value="" style="line;strokeWidth=1;fillColor=none;align=left;verticalAlign=middle;spacingTop=-1;spacingLeft=3;spacingRight=3;rotatable=0;labelPosition=right;points=[];portConstraint=eastwest;" vertex="1" parent="QDC6DLgOSGsQadJOwINI-18">
          <mxGeometry y="60" width="160" height="8" as="geometry" />
        </mxCell>
        <mxCell id="QDC6DLgOSGsQadJOwINI-21" value="+ method(type): type" style="text;strokeColor=none;fillColor=none;align=left;verticalAlign=top;spacingLeft=4;spacingRight=4;overflow=hidden;rotatable=0;points=[[0,0.5],[1,0.5]];portConstraint=eastwest;" vertex="1" parent="QDC6DLgOSGsQadJOwINI-18">
          <mxGeometry y="68" width="160" height="26" as="geometry" />
        </mxCell>
        <mxCell id="QDC6DLgOSGsQadJOwINI-22" value="集成方案执行器" style="swimlane;fontStyle=1;align=center;verticalAlign=top;childLayout=stackLayout;horizontal=1;startSize=26;horizontalStack=0;resizeParent=1;resizeParentMax=0;resizeLast=0;collapsible=1;marginBottom=0;" vertex="1" parent="1">
          <mxGeometry x="189" y="191" width="160" height="86" as="geometry" />
        </mxCell>
        <mxCell id="QDC6DLgOSGsQadJOwINI-23" value="+ field: 集成对象执行器" style="text;strokeColor=none;fillColor=none;align=left;verticalAlign=top;spacingLeft=4;spacingRight=4;overflow=hidden;rotatable=0;points=[[0,0.5],[1,0.5]];portConstraint=eastwest;" vertex="1" parent="QDC6DLgOSGsQadJOwINI-22">
          <mxGeometry y="26" width="160" height="26" as="geometry" />
        </mxCell>
        <mxCell id="QDC6DLgOSGsQadJOwINI-24" value="" style="line;strokeWidth=1;fillColor=none;align=left;verticalAlign=middle;spacingTop=-1;spacingLeft=3;spacingRight=3;rotatable=0;labelPosition=right;points=[];portConstraint=eastwest;" vertex="1" parent="QDC6DLgOSGsQadJOwINI-22">
          <mxGeometry y="52" width="160" height="8" as="geometry" />
        </mxCell>
        <mxCell id="QDC6DLgOSGsQadJOwINI-25" value="+ method(type): type" style="text;strokeColor=none;fillColor=none;align=left;verticalAlign=top;spacingLeft=4;spacingRight=4;overflow=hidden;rotatable=0;points=[[0,0.5],[1,0.5]];portConstraint=eastwest;" vertex="1" parent="QDC6DLgOSGsQadJOwINI-22">
          <mxGeometry y="60" width="160" height="26" as="geometry" />
        </mxCell>
        <mxCell id="QDC6DLgOSGsQadJOwINI-26" value="接口方案执行器" style="swimlane;fontStyle=1;align=center;verticalAlign=top;childLayout=stackLayout;horizontal=1;startSize=26;horizontalStack=0;resizeParent=1;resizeParentMax=0;resizeLast=0;collapsible=1;marginBottom=0;" vertex="1" parent="1">
          <mxGeometry x="429" y="191" width="160" height="86" as="geometry" />
        </mxCell>
        <mxCell id="QDC6DLgOSGsQadJOwINI-27" value="+ field: 集成对象执行器" style="text;strokeColor=none;fillColor=none;align=left;verticalAlign=top;spacingLeft=4;spacingRight=4;overflow=hidden;rotatable=0;points=[[0,0.5],[1,0.5]];portConstraint=eastwest;" vertex="1" parent="QDC6DLgOSGsQadJOwINI-26">
          <mxGeometry y="26" width="160" height="26" as="geometry" />
        </mxCell>
        <mxCell id="QDC6DLgOSGsQadJOwINI-28" value="" style="line;strokeWidth=1;fillColor=none;align=left;verticalAlign=middle;spacingTop=-1;spacingLeft=3;spacingRight=3;rotatable=0;labelPosition=right;points=[];portConstraint=eastwest;" vertex="1" parent="QDC6DLgOSGsQadJOwINI-26">
          <mxGeometry y="52" width="160" height="8" as="geometry" />
        </mxCell>
        <mxCell id="QDC6DLgOSGsQadJOwINI-29" value="+ method(type): type" style="text;strokeColor=none;fillColor=none;align=left;verticalAlign=top;spacingLeft=4;spacingRight=4;overflow=hidden;rotatable=0;points=[[0,0.5],[1,0.5]];portConstraint=eastwest;" vertex="1" parent="QDC6DLgOSGsQadJOwINI-26">
          <mxGeometry y="60" width="160" height="26" as="geometry" />
        </mxCell>
        <mxCell id="QDC6DLgOSGsQadJOwINI-121" style="edgeStyle=orthogonalEdgeStyle;rounded=0;orthogonalLoop=1;jettySize=auto;html=1;entryX=0;entryY=0.5;entryDx=0;entryDy=0;endArrow=blockThin;endFill=0;endSize=15;dashed=1;" edge="1" parent="1" source="QDC6DLgOSGsQadJOwINI-54" target="QDC6DLgOSGsQadJOwINI-81">
          <mxGeometry relative="1" as="geometry" />
        </mxCell>
        <mxCell id="QDC6DLgOSGsQadJOwINI-128" style="edgeStyle=orthogonalEdgeStyle;rounded=0;orthogonalLoop=1;jettySize=auto;html=1;entryX=0.513;entryY=1.038;entryDx=0;entryDy=0;entryPerimeter=0;endArrow=diamondThin;endFill=0;endSize=15;exitX=0.75;exitY=0;exitDx=0;exitDy=0;" edge="1" parent="1" source="QDC6DLgOSGsQadJOwINI-54" target="QDC6DLgOSGsQadJOwINI-29">
          <mxGeometry relative="1" as="geometry">
            <Array as="points">
              <mxPoint x="259" y="401" />
              <mxPoint x="259" y="340" />
              <mxPoint x="511" y="340" />
            </Array>
          </mxGeometry>
        </mxCell>
        <mxCell id="QDC6DLgOSGsQadJOwINI-129" style="edgeStyle=orthogonalEdgeStyle;rounded=0;orthogonalLoop=1;jettySize=auto;html=1;entryX=0.513;entryY=0.977;entryDx=0;entryDy=0;entryPerimeter=0;endArrow=diamondThin;endFill=0;endSize=15;exitX=0.25;exitY=0;exitDx=0;exitDy=0;" edge="1" parent="1" source="QDC6DLgOSGsQadJOwINI-54" target="QDC6DLgOSGsQadJOwINI-25">
          <mxGeometry relative="1" as="geometry">
            <Array as="points">
              <mxPoint x="156" y="310" />
              <mxPoint x="271" y="310" />
            </Array>
          </mxGeometry>
        </mxCell>
        <mxCell id="QDC6DLgOSGsQadJOwINI-54" value="代理集成对象执行器" style="swimlane;fontStyle=1;align=center;verticalAlign=top;childLayout=stackLayout;horizontal=1;startSize=26;horizontalStack=0;resizeParent=1;resizeParentMax=0;resizeLast=0;collapsible=1;marginBottom=0;glass=0;gradientColor=none;swimlaneFillColor=none;" vertex="1" parent="1">
          <mxGeometry x="104" y="390" width="210" height="92" as="geometry">
            <mxRectangle x="123" y="390" width="150" height="30" as="alternateBounds" />
          </mxGeometry>
        </mxCell>
        <mxCell id="QDC6DLgOSGsQadJOwINI-55" value="+ 集成对象执行器映射: java.util.Map&#xa;+ 拦截器列表: java.util.List" style="text;strokeColor=none;fillColor=none;align=left;verticalAlign=top;spacingLeft=4;spacingRight=4;overflow=hidden;rotatable=0;points=[[0,0.5],[1,0.5]];portConstraint=eastwest;" vertex="1" parent="QDC6DLgOSGsQadJOwINI-54">
          <mxGeometry y="26" width="210" height="32" as="geometry" />
        </mxCell>
        <mxCell id="QDC6DLgOSGsQadJOwINI-56" value="" style="line;strokeWidth=1;fillColor=none;align=left;verticalAlign=middle;spacingTop=-1;spacingLeft=3;spacingRight=3;rotatable=0;labelPosition=right;points=[];portConstraint=eastwest;" vertex="1" parent="QDC6DLgOSGsQadJOwINI-54">
          <mxGeometry y="58" width="210" height="8" as="geometry" />
        </mxCell>
        <mxCell id="QDC6DLgOSGsQadJOwINI-57" value="+ execute(Req): Res" style="text;strokeColor=none;fillColor=none;align=left;verticalAlign=top;spacingLeft=4;spacingRight=4;overflow=hidden;rotatable=0;points=[[0,0.5],[1,0.5]];portConstraint=eastwest;" vertex="1" parent="QDC6DLgOSGsQadJOwINI-54">
          <mxGeometry y="66" width="210" height="26" as="geometry" />
        </mxCell>
        <mxCell id="QDC6DLgOSGsQadJOwINI-81" value="«interface»&lt;br&gt;&lt;b&gt;集成对象执行器&lt;/b&gt;" style="html=1;" vertex="1" parent="1">
          <mxGeometry x="549" y="351" width="110" height="50" as="geometry" />
        </mxCell>
        <mxCell id="QDC6DLgOSGsQadJOwINI-116" style="edgeStyle=orthogonalEdgeStyle;rounded=0;orthogonalLoop=1;jettySize=auto;html=1;entryX=0.236;entryY=0.962;entryDx=0;entryDy=0;entryPerimeter=0;endArrow=diamondThin;endFill=0;endSize=15;" edge="1" parent="1" source="QDC6DLgOSGsQadJOwINI-82" target="QDC6DLgOSGsQadJOwINI-57">
          <mxGeometry relative="1" as="geometry">
            <Array as="points">
              <mxPoint x="394" y="510" />
              <mxPoint x="154" y="510" />
            </Array>
          </mxGeometry>
        </mxCell>
        <mxCell id="QDC6DLgOSGsQadJOwINI-123" style="edgeStyle=orthogonalEdgeStyle;rounded=0;orthogonalLoop=1;jettySize=auto;html=1;dashed=1;endArrow=blockThin;endFill=0;endSize=15;exitX=0.5;exitY=0;exitDx=0;exitDy=0;" edge="1" parent="1" source="QDC6DLgOSGsQadJOwINI-82">
          <mxGeometry relative="1" as="geometry">
            <mxPoint x="559" y="401" as="targetPoint" />
            <Array as="points">
              <mxPoint x="394" y="480" />
              <mxPoint x="559" y="480" />
            </Array>
          </mxGeometry>
        </mxCell>
        <mxCell id="QDC6DLgOSGsQadJOwINI-82" value="结构集成对象执行器" style="swimlane;fontStyle=1;align=center;verticalAlign=top;childLayout=stackLayout;horizontal=1;startSize=26;horizontalStack=0;resizeParent=1;resizeParentMax=0;resizeLast=0;collapsible=1;marginBottom=0;" vertex="1" parent="1">
          <mxGeometry x="314" y="551" width="160" height="86" as="geometry" />
        </mxCell>
        <mxCell id="QDC6DLgOSGsQadJOwINI-83" value="+ 链接: 代理链接" style="text;strokeColor=none;fillColor=none;align=left;verticalAlign=top;spacingLeft=4;spacingRight=4;overflow=hidden;rotatable=0;points=[[0,0.5],[1,0.5]];portConstraint=eastwest;" vertex="1" parent="QDC6DLgOSGsQadJOwINI-82">
          <mxGeometry y="26" width="160" height="26" as="geometry" />
        </mxCell>
        <mxCell id="QDC6DLgOSGsQadJOwINI-84" value="" style="line;strokeWidth=1;fillColor=none;align=left;verticalAlign=middle;spacingTop=-1;spacingLeft=3;spacingRight=3;rotatable=0;labelPosition=right;points=[];portConstraint=eastwest;" vertex="1" parent="QDC6DLgOSGsQadJOwINI-82">
          <mxGeometry y="52" width="160" height="8" as="geometry" />
        </mxCell>
        <mxCell id="QDC6DLgOSGsQadJOwINI-85" value="+ execute(Req): Res" style="text;strokeColor=none;fillColor=none;align=left;verticalAlign=top;spacingLeft=4;spacingRight=4;overflow=hidden;rotatable=0;points=[[0,0.5],[1,0.5]];portConstraint=eastwest;" vertex="1" parent="QDC6DLgOSGsQadJOwINI-82">
          <mxGeometry y="60" width="160" height="26" as="geometry" />
        </mxCell>
        <mxCell id="QDC6DLgOSGsQadJOwINI-117" style="edgeStyle=orthogonalEdgeStyle;rounded=0;orthogonalLoop=1;jettySize=auto;html=1;entryX=0.411;entryY=0.992;entryDx=0;entryDy=0;entryPerimeter=0;endArrow=diamondThin;endFill=0;endSize=15;" edge="1" parent="1" source="QDC6DLgOSGsQadJOwINI-86" target="QDC6DLgOSGsQadJOwINI-57">
          <mxGeometry relative="1" as="geometry">
            <Array as="points">
              <mxPoint x="569" y="520" />
              <mxPoint x="190" y="520" />
            </Array>
          </mxGeometry>
        </mxCell>
        <mxCell id="QDC6DLgOSGsQadJOwINI-124" style="edgeStyle=orthogonalEdgeStyle;rounded=0;orthogonalLoop=1;jettySize=auto;html=1;dashed=1;endArrow=blockThin;endFill=0;endSize=15;entryX=0.382;entryY=0.988;entryDx=0;entryDy=0;entryPerimeter=0;" edge="1" parent="1" source="QDC6DLgOSGsQadJOwINI-86" target="QDC6DLgOSGsQadJOwINI-81">
          <mxGeometry relative="1" as="geometry">
            <mxPoint x="599" y="401" as="targetPoint" />
          </mxGeometry>
        </mxCell>
        <mxCell id="QDC6DLgOSGsQadJOwINI-86" value="数据表集成对象执行器" style="swimlane;fontStyle=1;align=center;verticalAlign=top;childLayout=stackLayout;horizontal=1;startSize=26;horizontalStack=0;resizeParent=1;resizeParentMax=0;resizeLast=0;collapsible=1;marginBottom=0;" vertex="1" parent="1">
          <mxGeometry x="489" y="551" width="160" height="86" as="geometry" />
        </mxCell>
        <mxCell id="QDC6DLgOSGsQadJOwINI-87" value="+ 链接: 代理链接" style="text;strokeColor=none;fillColor=none;align=left;verticalAlign=top;spacingLeft=4;spacingRight=4;overflow=hidden;rotatable=0;points=[[0,0.5],[1,0.5]];portConstraint=eastwest;" vertex="1" parent="QDC6DLgOSGsQadJOwINI-86">
          <mxGeometry y="26" width="160" height="26" as="geometry" />
        </mxCell>
        <mxCell id="QDC6DLgOSGsQadJOwINI-88" value="" style="line;strokeWidth=1;fillColor=none;align=left;verticalAlign=middle;spacingTop=-1;spacingLeft=3;spacingRight=3;rotatable=0;labelPosition=right;points=[];portConstraint=eastwest;" vertex="1" parent="QDC6DLgOSGsQadJOwINI-86">
          <mxGeometry y="52" width="160" height="8" as="geometry" />
        </mxCell>
        <mxCell id="QDC6DLgOSGsQadJOwINI-89" value="+ execute(Req): Res" style="text;strokeColor=none;fillColor=none;align=left;verticalAlign=top;spacingLeft=4;spacingRight=4;overflow=hidden;rotatable=0;points=[[0,0.5],[1,0.5]];portConstraint=eastwest;" vertex="1" parent="QDC6DLgOSGsQadJOwINI-86">
          <mxGeometry y="60" width="160" height="26" as="geometry" />
        </mxCell>
        <mxCell id="QDC6DLgOSGsQadJOwINI-118" style="edgeStyle=orthogonalEdgeStyle;rounded=0;orthogonalLoop=1;jettySize=auto;html=1;endArrow=diamondThin;endFill=0;endSize=15;entryX=0.588;entryY=0.993;entryDx=0;entryDy=0;entryPerimeter=0;" edge="1" parent="1" source="QDC6DLgOSGsQadJOwINI-90" target="QDC6DLgOSGsQadJOwINI-57">
          <mxGeometry relative="1" as="geometry">
            <mxPoint x="249" y="670" as="targetPoint" />
            <Array as="points">
              <mxPoint x="749" y="530" />
              <mxPoint x="228" y="530" />
            </Array>
          </mxGeometry>
        </mxCell>
        <mxCell id="QDC6DLgOSGsQadJOwINI-125" style="edgeStyle=orthogonalEdgeStyle;rounded=0;orthogonalLoop=1;jettySize=auto;html=1;entryX=0.658;entryY=1.02;entryDx=0;entryDy=0;entryPerimeter=0;dashed=1;endArrow=blockThin;endFill=0;endSize=15;exitX=0.5;exitY=0;exitDx=0;exitDy=0;" edge="1" parent="1" source="QDC6DLgOSGsQadJOwINI-90" target="QDC6DLgOSGsQadJOwINI-81">
          <mxGeometry relative="1" as="geometry" />
        </mxCell>
        <mxCell id="QDC6DLgOSGsQadJOwINI-90" value="查询服务集成对象执行器" style="swimlane;fontStyle=1;align=center;verticalAlign=top;childLayout=stackLayout;horizontal=1;startSize=26;horizontalStack=0;resizeParent=1;resizeParentMax=0;resizeLast=0;collapsible=1;marginBottom=0;" vertex="1" parent="1">
          <mxGeometry x="669" y="551" width="160" height="86" as="geometry" />
        </mxCell>
        <mxCell id="QDC6DLgOSGsQadJOwINI-91" value="+ 链接: 代理链接" style="text;strokeColor=none;fillColor=none;align=left;verticalAlign=top;spacingLeft=4;spacingRight=4;overflow=hidden;rotatable=0;points=[[0,0.5],[1,0.5]];portConstraint=eastwest;" vertex="1" parent="QDC6DLgOSGsQadJOwINI-90">
          <mxGeometry y="26" width="160" height="26" as="geometry" />
        </mxCell>
        <mxCell id="QDC6DLgOSGsQadJOwINI-92" value="" style="line;strokeWidth=1;fillColor=none;align=left;verticalAlign=middle;spacingTop=-1;spacingLeft=3;spacingRight=3;rotatable=0;labelPosition=right;points=[];portConstraint=eastwest;" vertex="1" parent="QDC6DLgOSGsQadJOwINI-90">
          <mxGeometry y="52" width="160" height="8" as="geometry" />
        </mxCell>
        <mxCell id="QDC6DLgOSGsQadJOwINI-93" value="+ execute(Req): Res" style="text;strokeColor=none;fillColor=none;align=left;verticalAlign=top;spacingLeft=4;spacingRight=4;overflow=hidden;rotatable=0;points=[[0,0.5],[1,0.5]];portConstraint=eastwest;" vertex="1" parent="QDC6DLgOSGsQadJOwINI-90">
          <mxGeometry y="60" width="160" height="26" as="geometry" />
        </mxCell>
        <mxCell id="QDC6DLgOSGsQadJOwINI-119" style="edgeStyle=orthogonalEdgeStyle;rounded=0;orthogonalLoop=1;jettySize=auto;html=1;endArrow=diamondThin;endFill=0;endSize=15;entryX=0.776;entryY=1.029;entryDx=0;entryDy=0;entryPerimeter=0;" edge="1" parent="1" source="QDC6DLgOSGsQadJOwINI-94" target="QDC6DLgOSGsQadJOwINI-57">
          <mxGeometry relative="1" as="geometry">
            <mxPoint x="269" y="680" as="targetPoint" />
            <Array as="points">
              <mxPoint x="929" y="540" />
              <mxPoint x="267" y="540" />
            </Array>
          </mxGeometry>
        </mxCell>
        <mxCell id="QDC6DLgOSGsQadJOwINI-126" style="edgeStyle=orthogonalEdgeStyle;rounded=0;orthogonalLoop=1;jettySize=auto;html=1;entryX=0.909;entryY=1;entryDx=0;entryDy=0;entryPerimeter=0;dashed=1;endArrow=blockThin;endFill=0;endSize=15;exitX=0.5;exitY=0;exitDx=0;exitDy=0;" edge="1" parent="1" source="QDC6DLgOSGsQadJOwINI-94" target="QDC6DLgOSGsQadJOwINI-81">
          <mxGeometry relative="1" as="geometry">
            <Array as="points">
              <mxPoint x="929" y="470" />
              <mxPoint x="649" y="470" />
            </Array>
          </mxGeometry>
        </mxCell>
        <mxCell id="QDC6DLgOSGsQadJOwINI-94" value="加载服务集成对象执行器" style="swimlane;fontStyle=1;align=center;verticalAlign=top;childLayout=stackLayout;horizontal=1;startSize=26;horizontalStack=0;resizeParent=1;resizeParentMax=0;resizeLast=0;collapsible=1;marginBottom=0;" vertex="1" parent="1">
          <mxGeometry x="849" y="551" width="160" height="86" as="geometry" />
        </mxCell>
        <mxCell id="QDC6DLgOSGsQadJOwINI-95" value="+ 链接: 代理链接" style="text;strokeColor=none;fillColor=none;align=left;verticalAlign=top;spacingLeft=4;spacingRight=4;overflow=hidden;rotatable=0;points=[[0,0.5],[1,0.5]];portConstraint=eastwest;" vertex="1" parent="QDC6DLgOSGsQadJOwINI-94">
          <mxGeometry y="26" width="160" height="26" as="geometry" />
        </mxCell>
        <mxCell id="QDC6DLgOSGsQadJOwINI-96" value="" style="line;strokeWidth=1;fillColor=none;align=left;verticalAlign=middle;spacingTop=-1;spacingLeft=3;spacingRight=3;rotatable=0;labelPosition=right;points=[];portConstraint=eastwest;" vertex="1" parent="QDC6DLgOSGsQadJOwINI-94">
          <mxGeometry y="52" width="160" height="8" as="geometry" />
        </mxCell>
        <mxCell id="QDC6DLgOSGsQadJOwINI-97" value="+ execute(Req): Res" style="text;strokeColor=none;fillColor=none;align=left;verticalAlign=top;spacingLeft=4;spacingRight=4;overflow=hidden;rotatable=0;points=[[0,0.5],[1,0.5]];portConstraint=eastwest;" vertex="1" parent="QDC6DLgOSGsQadJOwINI-94">
          <mxGeometry y="60" width="160" height="26" as="geometry" />
        </mxCell>
        <mxCell id="QDC6DLgOSGsQadJOwINI-131" value="«interface»&lt;br&gt;&lt;b&gt;连接工厂&lt;/b&gt;" style="html=1;" vertex="1" parent="1">
          <mxGeometry x="514" y="831" width="110" height="50" as="geometry" />
        </mxCell>
        <mxCell id="QDC6DLgOSGsQadJOwINI-132" value="«interface»&lt;br&gt;&lt;b&gt;连接&lt;/b&gt;" style="html=1;" vertex="1" parent="1">
          <mxGeometry x="804" y="921" width="110" height="50" as="geometry" />
        </mxCell>
        <mxCell id="QDC6DLgOSGsQadJOwINI-134" value="Create" style="endArrow=open;endSize=12;dashed=1;html=1;rounded=0;exitX=1;exitY=0.5;exitDx=0;exitDy=0;entryX=0.5;entryY=0;entryDx=0;entryDy=0;edgeStyle=orthogonalEdgeStyle;" edge="1" parent="1" source="QDC6DLgOSGsQadJOwINI-131" target="QDC6DLgOSGsQadJOwINI-132">
          <mxGeometry x="-0.1667" width="160" relative="1" as="geometry">
            <mxPoint x="569" y="961" as="sourcePoint" />
            <mxPoint x="729" y="961" as="targetPoint" />
            <Array as="points">
              <mxPoint x="859" y="856" />
            </Array>
            <mxPoint as="offset" />
          </mxGeometry>
        </mxCell>
        <mxCell id="QDC6DLgOSGsQadJOwINI-135" value="RESTful连接工厂" style="swimlane;fontStyle=1;align=center;verticalAlign=top;childLayout=stackLayout;horizontal=1;startSize=26;horizontalStack=0;resizeParent=1;resizeParentMax=0;resizeLast=0;collapsible=1;marginBottom=0;" vertex="1" parent="1">
          <mxGeometry x="104" y="941" width="160" height="60" as="geometry" />
        </mxCell>
        <mxCell id="QDC6DLgOSGsQadJOwINI-137" value="" style="line;strokeWidth=1;fillColor=none;align=left;verticalAlign=middle;spacingTop=-1;spacingLeft=3;spacingRight=3;rotatable=0;labelPosition=right;points=[];portConstraint=eastwest;" vertex="1" parent="QDC6DLgOSGsQadJOwINI-135">
          <mxGeometry y="26" width="160" height="8" as="geometry" />
        </mxCell>
        <mxCell id="QDC6DLgOSGsQadJOwINI-138" value="+ create(): 连接" style="text;strokeColor=none;fillColor=none;align=left;verticalAlign=top;spacingLeft=4;spacingRight=4;overflow=hidden;rotatable=0;points=[[0,0.5],[1,0.5]];portConstraint=eastwest;" vertex="1" parent="QDC6DLgOSGsQadJOwINI-135">
          <mxGeometry y="34" width="160" height="26" as="geometry" />
        </mxCell>
        <mxCell id="QDC6DLgOSGsQadJOwINI-139" value="RFC连接工厂" style="swimlane;fontStyle=1;align=center;verticalAlign=top;childLayout=stackLayout;horizontal=1;startSize=26;horizontalStack=0;resizeParent=1;resizeParentMax=0;resizeLast=0;collapsible=1;marginBottom=0;" vertex="1" parent="1">
          <mxGeometry x="284" y="941" width="160" height="60" as="geometry" />
        </mxCell>
        <mxCell id="QDC6DLgOSGsQadJOwINI-140" value="" style="line;strokeWidth=1;fillColor=none;align=left;verticalAlign=middle;spacingTop=-1;spacingLeft=3;spacingRight=3;rotatable=0;labelPosition=right;points=[];portConstraint=eastwest;" vertex="1" parent="QDC6DLgOSGsQadJOwINI-139">
          <mxGeometry y="26" width="160" height="8" as="geometry" />
        </mxCell>
        <mxCell id="QDC6DLgOSGsQadJOwINI-141" value="+ create(): 连接" style="text;strokeColor=none;fillColor=none;align=left;verticalAlign=top;spacingLeft=4;spacingRight=4;overflow=hidden;rotatable=0;points=[[0,0.5],[1,0.5]];portConstraint=eastwest;" vertex="1" parent="QDC6DLgOSGsQadJOwINI-139">
          <mxGeometry y="34" width="160" height="26" as="geometry" />
        </mxCell>
        <mxCell id="QDC6DLgOSGsQadJOwINI-142" value="MySQL连接工厂" style="swimlane;fontStyle=1;align=center;verticalAlign=top;childLayout=stackLayout;horizontal=1;startSize=26;horizontalStack=0;resizeParent=1;resizeParentMax=0;resizeLast=0;collapsible=1;marginBottom=0;" vertex="1" parent="1">
          <mxGeometry x="464" y="941" width="160" height="60" as="geometry" />
        </mxCell>
        <mxCell id="QDC6DLgOSGsQadJOwINI-143" value="" style="line;strokeWidth=1;fillColor=none;align=left;verticalAlign=middle;spacingTop=-1;spacingLeft=3;spacingRight=3;rotatable=0;labelPosition=right;points=[];portConstraint=eastwest;" vertex="1" parent="QDC6DLgOSGsQadJOwINI-142">
          <mxGeometry y="26" width="160" height="8" as="geometry" />
        </mxCell>
        <mxCell id="QDC6DLgOSGsQadJOwINI-144" value="+ create(): 连接" style="text;strokeColor=none;fillColor=none;align=left;verticalAlign=top;spacingLeft=4;spacingRight=4;overflow=hidden;rotatable=0;points=[[0,0.5],[1,0.5]];portConstraint=eastwest;" vertex="1" parent="QDC6DLgOSGsQadJOwINI-142">
          <mxGeometry y="34" width="160" height="26" as="geometry" />
        </mxCell>
        <mxCell id="QDC6DLgOSGsQadJOwINI-145" value="RESTful连接" style="swimlane;fontStyle=1;align=center;verticalAlign=top;childLayout=stackLayout;horizontal=1;startSize=26;horizontalStack=0;resizeParent=1;resizeParentMax=0;resizeLast=0;collapsible=1;marginBottom=0;" vertex="1" parent="1">
          <mxGeometry x="599" y="1031" width="160" height="86" as="geometry" />
        </mxCell>
        <mxCell id="QDC6DLgOSGsQadJOwINI-146" value="+ field: type" style="text;strokeColor=none;fillColor=none;align=left;verticalAlign=top;spacingLeft=4;spacingRight=4;overflow=hidden;rotatable=0;points=[[0,0.5],[1,0.5]];portConstraint=eastwest;" vertex="1" parent="QDC6DLgOSGsQadJOwINI-145">
          <mxGeometry y="26" width="160" height="26" as="geometry" />
        </mxCell>
        <mxCell id="QDC6DLgOSGsQadJOwINI-147" value="" style="line;strokeWidth=1;fillColor=none;align=left;verticalAlign=middle;spacingTop=-1;spacingLeft=3;spacingRight=3;rotatable=0;labelPosition=right;points=[];portConstraint=eastwest;" vertex="1" parent="QDC6DLgOSGsQadJOwINI-145">
          <mxGeometry y="52" width="160" height="8" as="geometry" />
        </mxCell>
        <mxCell id="QDC6DLgOSGsQadJOwINI-148" value="+ invoke(Object): Object" style="text;strokeColor=none;fillColor=none;align=left;verticalAlign=top;spacingLeft=4;spacingRight=4;overflow=hidden;rotatable=0;points=[[0,0.5],[1,0.5]];portConstraint=eastwest;" vertex="1" parent="QDC6DLgOSGsQadJOwINI-145">
          <mxGeometry y="60" width="160" height="26" as="geometry" />
        </mxCell>
        <mxCell id="QDC6DLgOSGsQadJOwINI-149" value="RFC连接" style="swimlane;fontStyle=1;align=center;verticalAlign=top;childLayout=stackLayout;horizontal=1;startSize=26;horizontalStack=0;resizeParent=1;resizeParentMax=0;resizeLast=0;collapsible=1;marginBottom=0;" vertex="1" parent="1">
          <mxGeometry x="779" y="1031" width="160" height="86" as="geometry" />
        </mxCell>
        <mxCell id="QDC6DLgOSGsQadJOwINI-150" value="+ field: type" style="text;strokeColor=none;fillColor=none;align=left;verticalAlign=top;spacingLeft=4;spacingRight=4;overflow=hidden;rotatable=0;points=[[0,0.5],[1,0.5]];portConstraint=eastwest;" vertex="1" parent="QDC6DLgOSGsQadJOwINI-149">
          <mxGeometry y="26" width="160" height="26" as="geometry" />
        </mxCell>
        <mxCell id="QDC6DLgOSGsQadJOwINI-151" value="" style="line;strokeWidth=1;fillColor=none;align=left;verticalAlign=middle;spacingTop=-1;spacingLeft=3;spacingRight=3;rotatable=0;labelPosition=right;points=[];portConstraint=eastwest;" vertex="1" parent="QDC6DLgOSGsQadJOwINI-149">
          <mxGeometry y="52" width="160" height="8" as="geometry" />
        </mxCell>
        <mxCell id="QDC6DLgOSGsQadJOwINI-152" value="+ invoke(Object): Object" style="text;strokeColor=none;fillColor=none;align=left;verticalAlign=top;spacingLeft=4;spacingRight=4;overflow=hidden;rotatable=0;points=[[0,0.5],[1,0.5]];portConstraint=eastwest;" vertex="1" parent="QDC6DLgOSGsQadJOwINI-149">
          <mxGeometry y="60" width="160" height="26" as="geometry" />
        </mxCell>
        <mxCell id="QDC6DLgOSGsQadJOwINI-153" value="MySQL连接" style="swimlane;fontStyle=1;align=center;verticalAlign=top;childLayout=stackLayout;horizontal=1;startSize=26;horizontalStack=0;resizeParent=1;resizeParentMax=0;resizeLast=0;collapsible=1;marginBottom=0;" vertex="1" parent="1">
          <mxGeometry x="959" y="1031" width="160" height="86" as="geometry" />
        </mxCell>
        <mxCell id="QDC6DLgOSGsQadJOwINI-154" value="+ field: type" style="text;strokeColor=none;fillColor=none;align=left;verticalAlign=top;spacingLeft=4;spacingRight=4;overflow=hidden;rotatable=0;points=[[0,0.5],[1,0.5]];portConstraint=eastwest;" vertex="1" parent="QDC6DLgOSGsQadJOwINI-153">
          <mxGeometry y="26" width="160" height="26" as="geometry" />
        </mxCell>
        <mxCell id="QDC6DLgOSGsQadJOwINI-155" value="" style="line;strokeWidth=1;fillColor=none;align=left;verticalAlign=middle;spacingTop=-1;spacingLeft=3;spacingRight=3;rotatable=0;labelPosition=right;points=[];portConstraint=eastwest;" vertex="1" parent="QDC6DLgOSGsQadJOwINI-153">
          <mxGeometry y="52" width="160" height="8" as="geometry" />
        </mxCell>
        <mxCell id="QDC6DLgOSGsQadJOwINI-156" value="+ invoke(Object): Object" style="text;strokeColor=none;fillColor=none;align=left;verticalAlign=top;spacingLeft=4;spacingRight=4;overflow=hidden;rotatable=0;points=[[0,0.5],[1,0.5]];portConstraint=eastwest;" vertex="1" parent="QDC6DLgOSGsQadJOwINI-153">
          <mxGeometry y="60" width="160" height="26" as="geometry" />
        </mxCell>
        <mxCell id="QDC6DLgOSGsQadJOwINI-158" value="" style="endArrow=block;dashed=1;endFill=0;endSize=12;html=1;rounded=0;exitX=0.5;exitY=0;exitDx=0;exitDy=0;entryX=0;entryY=0.5;entryDx=0;entryDy=0;edgeStyle=orthogonalEdgeStyle;" edge="1" parent="1" source="QDC6DLgOSGsQadJOwINI-135" target="QDC6DLgOSGsQadJOwINI-131">
          <mxGeometry width="160" relative="1" as="geometry">
            <mxPoint x="239" y="881" as="sourcePoint" />
            <mxPoint x="399" y="881" as="targetPoint" />
            <Array as="points">
              <mxPoint x="184" y="891" />
              <mxPoint x="339" y="891" />
              <mxPoint x="339" y="856" />
            </Array>
          </mxGeometry>
        </mxCell>
        <mxCell id="QDC6DLgOSGsQadJOwINI-159" value="" style="endArrow=block;dashed=1;endFill=0;endSize=12;html=1;rounded=0;exitX=0.5;exitY=0;exitDx=0;exitDy=0;entryX=0.191;entryY=0.988;entryDx=0;entryDy=0;edgeStyle=orthogonalEdgeStyle;entryPerimeter=0;" edge="1" parent="1" source="QDC6DLgOSGsQadJOwINI-139" target="QDC6DLgOSGsQadJOwINI-131">
          <mxGeometry width="160" relative="1" as="geometry">
            <mxPoint x="259" y="1101" as="sourcePoint" />
            <mxPoint x="419" y="1101" as="targetPoint" />
          </mxGeometry>
        </mxCell>
        <mxCell id="QDC6DLgOSGsQadJOwINI-160" value="" style="endArrow=block;dashed=1;endFill=0;endSize=12;html=1;rounded=0;exitX=0.5;exitY=0;exitDx=0;exitDy=0;edgeStyle=orthogonalEdgeStyle;entryX=0.5;entryY=1;entryDx=0;entryDy=0;" edge="1" parent="1" source="QDC6DLgOSGsQadJOwINI-142" target="QDC6DLgOSGsQadJOwINI-131">
          <mxGeometry width="160" relative="1" as="geometry">
            <mxPoint x="379" y="1081" as="sourcePoint" />
            <mxPoint x="669" y="911" as="targetPoint" />
          </mxGeometry>
        </mxCell>
        <mxCell id="QDC6DLgOSGsQadJOwINI-161" value="" style="endArrow=block;dashed=1;endFill=0;endSize=12;html=1;rounded=0;exitX=0.5;exitY=0;exitDx=0;exitDy=0;entryX=0.25;entryY=1;entryDx=0;entryDy=0;edgeStyle=orthogonalEdgeStyle;" edge="1" parent="1" source="QDC6DLgOSGsQadJOwINI-145" target="QDC6DLgOSGsQadJOwINI-132">
          <mxGeometry width="160" relative="1" as="geometry">
            <mxPoint x="449" y="1181" as="sourcePoint" />
            <mxPoint x="609" y="1181" as="targetPoint" />
          </mxGeometry>
        </mxCell>
        <mxCell id="QDC6DLgOSGsQadJOwINI-162" value="" style="endArrow=block;dashed=1;endFill=0;endSize=12;html=1;rounded=0;exitX=0.5;exitY=0;exitDx=0;exitDy=0;entryX=0.5;entryY=1;entryDx=0;entryDy=0;edgeStyle=orthogonalEdgeStyle;" edge="1" parent="1" source="QDC6DLgOSGsQadJOwINI-149" target="QDC6DLgOSGsQadJOwINI-132">
          <mxGeometry width="160" relative="1" as="geometry">
            <mxPoint x="379" y="1201" as="sourcePoint" />
            <mxPoint x="539" y="1201" as="targetPoint" />
          </mxGeometry>
        </mxCell>
        <mxCell id="QDC6DLgOSGsQadJOwINI-163" value="" style="endArrow=block;dashed=1;endFill=0;endSize=12;html=1;rounded=0;exitX=0.5;exitY=0;exitDx=0;exitDy=0;entryX=0.75;entryY=1;entryDx=0;entryDy=0;edgeStyle=orthogonalEdgeStyle;" edge="1" parent="1" source="QDC6DLgOSGsQadJOwINI-153" target="QDC6DLgOSGsQadJOwINI-132">
          <mxGeometry width="160" relative="1" as="geometry">
            <mxPoint x="929" y="961" as="sourcePoint" />
            <mxPoint x="1089" y="961" as="targetPoint" />
          </mxGeometry>
        </mxCell>
        <mxCell id="QDC6DLgOSGsQadJOwINI-170" value="Create" style="endArrow=open;endSize=12;dashed=1;html=1;rounded=0;exitX=0.511;exitY=1.145;exitDx=0;exitDy=0;exitPerimeter=0;entryX=0.501;entryY=1.094;entryDx=0;entryDy=0;entryPerimeter=0;edgeStyle=orthogonalEdgeStyle;" edge="1" parent="1" source="QDC6DLgOSGsQadJOwINI-144" target="QDC6DLgOSGsQadJOwINI-156">
          <mxGeometry width="160" relative="1" as="geometry">
            <mxPoint x="279" y="1171" as="sourcePoint" />
            <mxPoint x="459" y="1211" as="targetPoint" />
            <Array as="points">
              <mxPoint x="546" y="1151" />
              <mxPoint x="1039" y="1151" />
            </Array>
          </mxGeometry>
        </mxCell>
        <mxCell id="QDC6DLgOSGsQadJOwINI-171" value="Create" style="endArrow=open;endSize=12;dashed=1;html=1;rounded=0;exitX=0.497;exitY=1.111;exitDx=0;exitDy=0;exitPerimeter=0;entryX=0.503;entryY=1.094;entryDx=0;entryDy=0;entryPerimeter=0;edgeStyle=orthogonalEdgeStyle;" edge="1" parent="1" source="QDC6DLgOSGsQadJOwINI-141" target="QDC6DLgOSGsQadJOwINI-152">
          <mxGeometry width="160" relative="1" as="geometry">
            <mxPoint x="329" y="1051" as="sourcePoint" />
            <mxPoint x="389" y="1161" as="targetPoint" />
            <Array as="points">
              <mxPoint x="363" y="1180" />
              <mxPoint x="859" y="1180" />
            </Array>
          </mxGeometry>
        </mxCell>
        <mxCell id="QDC6DLgOSGsQadJOwINI-172" value="Create" style="endArrow=open;endSize=12;dashed=1;html=1;rounded=0;exitX=0.5;exitY=1.111;exitDx=0;exitDy=0;exitPerimeter=0;entryX=0.501;entryY=1.026;entryDx=0;entryDy=0;entryPerimeter=0;edgeStyle=orthogonalEdgeStyle;" edge="1" parent="1" source="QDC6DLgOSGsQadJOwINI-138" target="QDC6DLgOSGsQadJOwINI-148">
          <mxGeometry width="160" relative="1" as="geometry">
            <mxPoint x="109" y="1111" as="sourcePoint" />
            <mxPoint x="269" y="1111" as="targetPoint" />
            <Array as="points">
              <mxPoint x="184" y="1210" />
              <mxPoint x="679" y="1210" />
            </Array>
          </mxGeometry>
        </mxCell>
        <mxCell id="QDC6DLgOSGsQadJOwINI-174" value="代理连接" style="swimlane;fontStyle=1;align=center;verticalAlign=top;childLayout=stackLayout;horizontal=1;startSize=26;horizontalStack=0;resizeParent=1;resizeParentMax=0;resizeLast=0;collapsible=1;marginBottom=0;" vertex="1" parent="1">
          <mxGeometry x="129" y="740" width="170" height="110" as="geometry" />
        </mxCell>
        <mxCell id="QDC6DLgOSGsQadJOwINI-175" value="+ 连接工厂映射: java.util.Map&#xa;+ 连接映射: java.util.Map&#xa;+ 拦截器列表: java.util.List" style="text;strokeColor=none;fillColor=none;align=left;verticalAlign=top;spacingLeft=4;spacingRight=4;overflow=hidden;rotatable=0;points=[[0,0.5],[1,0.5]];portConstraint=eastwest;" vertex="1" parent="QDC6DLgOSGsQadJOwINI-174">
          <mxGeometry y="26" width="170" height="50" as="geometry" />
        </mxCell>
        <mxCell id="QDC6DLgOSGsQadJOwINI-176" value="" style="line;strokeWidth=1;fillColor=none;align=left;verticalAlign=middle;spacingTop=-1;spacingLeft=3;spacingRight=3;rotatable=0;labelPosition=right;points=[];portConstraint=eastwest;" vertex="1" parent="QDC6DLgOSGsQadJOwINI-174">
          <mxGeometry y="76" width="170" height="8" as="geometry" />
        </mxCell>
        <mxCell id="QDC6DLgOSGsQadJOwINI-177" value="+ execute(Req): Res" style="text;strokeColor=none;fillColor=none;align=left;verticalAlign=top;spacingLeft=4;spacingRight=4;overflow=hidden;rotatable=0;points=[[0,0.5],[1,0.5]];portConstraint=eastwest;" vertex="1" parent="QDC6DLgOSGsQadJOwINI-174">
          <mxGeometry y="84" width="170" height="26" as="geometry" />
        </mxCell>
        <mxCell id="QDC6DLgOSGsQadJOwINI-179" value="" style="endArrow=diamondThin;endFill=0;endSize=24;html=1;rounded=0;entryX=1.001;entryY=0.938;entryDx=0;entryDy=0;exitX=0.75;exitY=0;exitDx=0;exitDy=0;edgeStyle=orthogonalEdgeStyle;entryPerimeter=0;" edge="1" parent="1" source="QDC6DLgOSGsQadJOwINI-131" target="QDC6DLgOSGsQadJOwINI-175">
          <mxGeometry width="160" relative="1" as="geometry">
            <mxPoint x="389" y="790" as="sourcePoint" />
            <mxPoint x="549" y="790" as="targetPoint" />
          </mxGeometry>
        </mxCell>
        <mxCell id="QDC6DLgOSGsQadJOwINI-180" value="" style="endArrow=diamondThin;endFill=0;endSize=24;html=1;rounded=0;entryX=0.996;entryY=0.071;entryDx=0;entryDy=0;exitX=0.75;exitY=0;exitDx=0;exitDy=0;edgeStyle=orthogonalEdgeStyle;entryPerimeter=0;" edge="1" parent="1" source="QDC6DLgOSGsQadJOwINI-132" target="QDC6DLgOSGsQadJOwINI-175">
          <mxGeometry width="160" relative="1" as="geometry">
            <mxPoint x="669" y="800" as="sourcePoint" />
            <mxPoint x="829" y="800" as="targetPoint" />
          </mxGeometry>
        </mxCell>
        <mxCell id="QDC6DLgOSGsQadJOwINI-184" value="" style="endArrow=block;dashed=1;endFill=0;endSize=12;html=1;rounded=0;exitX=1;exitY=0.5;exitDx=0;exitDy=0;entryX=0.25;entryY=0;entryDx=0;entryDy=0;edgeStyle=orthogonalEdgeStyle;" edge="1" parent="1" source="QDC6DLgOSGsQadJOwINI-175" target="QDC6DLgOSGsQadJOwINI-132">
          <mxGeometry width="160" relative="1" as="geometry">
            <mxPoint x="489" y="710" as="sourcePoint" />
            <mxPoint x="649" y="710" as="targetPoint" />
          </mxGeometry>
        </mxCell>
        <mxCell id="QDC6DLgOSGsQadJOwINI-190" value="" style="endArrow=diamondThin;endFill=0;endSize=24;html=1;rounded=0;exitX=1;exitY=0;exitDx=0;exitDy=0;entryX=0.504;entryY=1.197;entryDx=0;entryDy=0;entryPerimeter=0;edgeStyle=orthogonalEdgeStyle;" edge="1" parent="1" source="QDC6DLgOSGsQadJOwINI-132" target="QDC6DLgOSGsQadJOwINI-97">
          <mxGeometry width="160" relative="1" as="geometry">
            <mxPoint x="969" y="770" as="sourcePoint" />
            <mxPoint x="1129" y="770" as="targetPoint" />
            <Array as="points">
              <mxPoint x="930" y="921" />
            </Array>
          </mxGeometry>
        </mxCell>
        <mxCell id="QDC6DLgOSGsQadJOwINI-191" value="" style="endArrow=diamondThin;endFill=0;endSize=24;html=1;rounded=0;exitX=1;exitY=0.25;exitDx=0;exitDy=0;entryX=0.5;entryY=1.052;entryDx=0;entryDy=0;entryPerimeter=0;edgeStyle=orthogonalEdgeStyle;" edge="1" parent="1" source="QDC6DLgOSGsQadJOwINI-132" target="QDC6DLgOSGsQadJOwINI-93">
          <mxGeometry width="160" relative="1" as="geometry">
            <mxPoint x="1039" y="770" as="sourcePoint" />
            <mxPoint x="1199" y="770" as="targetPoint" />
            <Array as="points">
              <mxPoint x="914" y="930" />
              <mxPoint x="959" y="930" />
              <mxPoint x="959" y="680" />
              <mxPoint x="749" y="680" />
            </Array>
          </mxGeometry>
        </mxCell>
        <mxCell id="QDC6DLgOSGsQadJOwINI-192" value="" style="endArrow=diamondThin;endFill=0;endSize=24;html=1;rounded=0;exitX=1;exitY=0.5;exitDx=0;exitDy=0;entryX=0.501;entryY=1.124;entryDx=0;entryDy=0;entryPerimeter=0;edgeStyle=orthogonalEdgeStyle;" edge="1" parent="1" source="QDC6DLgOSGsQadJOwINI-132" target="QDC6DLgOSGsQadJOwINI-89">
          <mxGeometry width="160" relative="1" as="geometry">
            <mxPoint x="989" y="740" as="sourcePoint" />
            <mxPoint x="1149" y="740" as="targetPoint" />
            <Array as="points">
              <mxPoint x="989" y="946" />
              <mxPoint x="989" y="700" />
              <mxPoint x="569" y="700" />
            </Array>
          </mxGeometry>
        </mxCell>
        <mxCell id="QDC6DLgOSGsQadJOwINI-193" value="" style="endArrow=diamondThin;endFill=0;endSize=24;html=1;rounded=0;exitX=1;exitY=0.75;exitDx=0;exitDy=0;entryX=0.501;entryY=1.197;entryDx=0;entryDy=0;entryPerimeter=0;edgeStyle=orthogonalEdgeStyle;" edge="1" parent="1" source="QDC6DLgOSGsQadJOwINI-132" target="QDC6DLgOSGsQadJOwINI-85">
          <mxGeometry width="160" relative="1" as="geometry">
            <mxPoint x="1029" y="770" as="sourcePoint" />
            <mxPoint x="1189" y="770" as="targetPoint" />
            <Array as="points">
              <mxPoint x="914" y="960" />
              <mxPoint x="1019" y="960" />
              <mxPoint x="1019" y="720" />
              <mxPoint x="394" y="720" />
            </Array>
          </mxGeometry>
        </mxCell>
        <mxCell id="QDC6DLgOSGsQadJOwINI-211" value="IntegrationRequest" style="swimlane;fontStyle=0;childLayout=stackLayout;horizontal=1;startSize=26;fillColor=none;horizontalStack=0;resizeParent=1;resizeParentMax=0;resizeLast=0;collapsible=1;marginBottom=0;glass=0;" vertex="1" parent="1">
          <mxGeometry x="979" y="40" width="140" height="104" as="geometry" />
        </mxCell>
        <mxCell id="QDC6DLgOSGsQadJOwINI-212" value="+ field: type" style="text;strokeColor=none;fillColor=none;align=left;verticalAlign=top;spacingLeft=4;spacingRight=4;overflow=hidden;rotatable=0;points=[[0,0.5],[1,0.5]];portConstraint=eastwest;glass=0;" vertex="1" parent="QDC6DLgOSGsQadJOwINI-211">
          <mxGeometry y="26" width="140" height="26" as="geometry" />
        </mxCell>
        <mxCell id="QDC6DLgOSGsQadJOwINI-213" value="+ field: type" style="text;strokeColor=none;fillColor=none;align=left;verticalAlign=top;spacingLeft=4;spacingRight=4;overflow=hidden;rotatable=0;points=[[0,0.5],[1,0.5]];portConstraint=eastwest;glass=0;" vertex="1" parent="QDC6DLgOSGsQadJOwINI-211">
          <mxGeometry y="52" width="140" height="26" as="geometry" />
        </mxCell>
        <mxCell id="QDC6DLgOSGsQadJOwINI-214" value="+ field: type" style="text;strokeColor=none;fillColor=none;align=left;verticalAlign=top;spacingLeft=4;spacingRight=4;overflow=hidden;rotatable=0;points=[[0,0.5],[1,0.5]];portConstraint=eastwest;glass=0;" vertex="1" parent="QDC6DLgOSGsQadJOwINI-211">
          <mxGeometry y="78" width="140" height="26" as="geometry" />
        </mxCell>
        <mxCell id="QDC6DLgOSGsQadJOwINI-215" value="IntegrationResponse" style="swimlane;fontStyle=0;childLayout=stackLayout;horizontal=1;startSize=26;fillColor=none;horizontalStack=0;resizeParent=1;resizeParentMax=0;resizeLast=0;collapsible=1;marginBottom=0;glass=0;" vertex="1" parent="1">
          <mxGeometry x="979" y="159" width="140" height="104" as="geometry" />
        </mxCell>
        <mxCell id="QDC6DLgOSGsQadJOwINI-216" value="+ field: type" style="text;strokeColor=none;fillColor=none;align=left;verticalAlign=top;spacingLeft=4;spacingRight=4;overflow=hidden;rotatable=0;points=[[0,0.5],[1,0.5]];portConstraint=eastwest;glass=0;" vertex="1" parent="QDC6DLgOSGsQadJOwINI-215">
          <mxGeometry y="26" width="140" height="26" as="geometry" />
        </mxCell>
        <mxCell id="QDC6DLgOSGsQadJOwINI-217" value="+ field: type" style="text;strokeColor=none;fillColor=none;align=left;verticalAlign=top;spacingLeft=4;spacingRight=4;overflow=hidden;rotatable=0;points=[[0,0.5],[1,0.5]];portConstraint=eastwest;glass=0;" vertex="1" parent="QDC6DLgOSGsQadJOwINI-215">
          <mxGeometry y="52" width="140" height="26" as="geometry" />
        </mxCell>
        <mxCell id="QDC6DLgOSGsQadJOwINI-218" value="+ field: type" style="text;strokeColor=none;fillColor=none;align=left;verticalAlign=top;spacingLeft=4;spacingRight=4;overflow=hidden;rotatable=0;points=[[0,0.5],[1,0.5]];portConstraint=eastwest;glass=0;" vertex="1" parent="QDC6DLgOSGsQadJOwINI-215">
          <mxGeometry y="78" width="140" height="26" as="geometry" />
        </mxCell>
        <mxCell id="QDC6DLgOSGsQadJOwINI-236" value="«interface»&lt;br&gt;&lt;b&gt;集成对象拦截器&lt;/b&gt;" style="html=1;glass=0;gradientColor=none;" vertex="1" parent="1">
          <mxGeometry x="51" y="550" width="110" height="50" as="geometry" />
        </mxCell>
        <mxCell id="QDC6DLgOSGsQadJOwINI-237" value="«interface»&lt;br&gt;&lt;b&gt;连接拦截器&lt;/b&gt;" style="html=1;glass=0;gradientColor=none;" vertex="1" parent="1">
          <mxGeometry x="51" y="610" width="110" height="50" as="geometry" />
        </mxCell>
        <mxCell id="QDC6DLgOSGsQadJOwINI-240" value="" style="endArrow=diamondThin;endFill=0;endSize=24;html=1;rounded=0;entryX=0;entryY=0.5;entryDx=0;entryDy=0;exitX=0;exitY=0.5;exitDx=0;exitDy=0;edgeStyle=orthogonalEdgeStyle;" edge="1" parent="1" source="QDC6DLgOSGsQadJOwINI-236" target="QDC6DLgOSGsQadJOwINI-55">
          <mxGeometry width="160" relative="1" as="geometry">
            <mxPoint x="110" y="630" as="sourcePoint" />
            <mxPoint x="270" y="630" as="targetPoint" />
          </mxGeometry>
        </mxCell>
        <mxCell id="QDC6DLgOSGsQadJOwINI-241" value="" style="endArrow=diamondThin;endFill=0;endSize=24;html=1;rounded=0;entryX=0.5;entryY=0;entryDx=0;entryDy=0;exitX=0.5;exitY=1;exitDx=0;exitDy=0;edgeStyle=orthogonalEdgeStyle;" edge="1" parent="1" source="QDC6DLgOSGsQadJOwINI-237" target="QDC6DLgOSGsQadJOwINI-174">
          <mxGeometry width="160" relative="1" as="geometry">
            <mxPoint x="200" y="690" as="sourcePoint" />
            <mxPoint x="360" y="690" as="targetPoint" />
          </mxGeometry>
        </mxCell>
      </root>
    </mxGraphModel>
  </diagram>
</mxfile>
